<svg xmlns="http://www.w3.org/2000/svg" width="16.709" height="16.713" viewBox="0 0 16.709 16.713">
  <g id="bell" transform="translate(-2.006 -2)" opacity="0.87">
    <path id="Path_2" data-name="Path 2" d="M18.584,15.352l-2.179-2.674-.078-4.709a.6.6,0,0,0,0-.1C15.641,4.137,13.469,2,10.359,2A6.75,6.75,0,0,0,3.793,7.861a.6.6,0,0,0,0,.107l-.078,4.775L2.086,15.418a.609.609,0,0,0,.513.907H7.971a2.388,2.388,0,0,0,4.775,0h5.372a.6.6,0,0,0,.466-.973Zm-8.225,2.167a1.194,1.194,0,0,1-1.194-1.194h2.388A1.194,1.194,0,0,1,10.359,17.519Zm-6.7-2.388L4.85,13.2a.6.6,0,0,0,.084-.3l.054-4.871a5.533,5.533,0,0,1,5.372-4.835c3.36,0,4.435,2.984,4.775,4.835l.084,4.871a.6.6,0,0,0,.131.37l1.516,1.862Z" fill="#fff"/>
  </g>
</svg>
