<svg id="Expanded" xmlns="http://www.w3.org/2000/svg" width="20.763" height="20.763" viewBox="0 0 20.763 20.763">
  <g id="Group_85" data-name="Group 85">
    <g id="Group_83" data-name="Group 83">
      <path id="Path_9" data-name="Path 9" d="M11.246,20.763H9.516a1.3,1.3,0,0,1-1.3-1.3V17.854a7.722,7.722,0,0,1-1.592-.661l-1.139,1.14a1.329,1.329,0,0,1-1.835,0L2.428,17.11a1.3,1.3,0,0,1,0-1.835l1.14-1.14a7.673,7.673,0,0,1-.66-1.591H1.3a1.3,1.3,0,0,1-1.3-1.3V9.516a1.3,1.3,0,0,1,1.3-1.3H2.909a7.723,7.723,0,0,1,.66-1.591L2.429,5.487a1.3,1.3,0,0,1,0-1.835L3.653,2.428a1.329,1.329,0,0,1,1.835,0l1.14,1.14a7.718,7.718,0,0,1,1.591-.66V1.3A1.3,1.3,0,0,1,9.516,0h1.73a1.3,1.3,0,0,1,1.3,1.3V2.909a7.726,7.726,0,0,1,1.591.66l1.14-1.14a1.329,1.329,0,0,1,1.835,0l1.224,1.223a1.3,1.3,0,0,1,0,1.835l-1.139,1.14a7.684,7.684,0,0,1,.66,1.592h1.61a1.3,1.3,0,0,1,1.3,1.3v1.73a1.3,1.3,0,0,1-1.3,1.3H17.854a7.721,7.721,0,0,1-.66,1.592l1.139,1.14a1.3,1.3,0,0,1,0,1.835L17.11,18.334a1.329,1.329,0,0,1-1.835,0l-1.139-1.14a7.723,7.723,0,0,1-1.591.66v1.611A1.3,1.3,0,0,1,11.246,20.763ZM6.556,16.22a.433.433,0,0,1,.225.063,6.868,6.868,0,0,0,1.971.818.433.433,0,0,1,.331.42v1.943a.433.433,0,0,0,.433.433h1.73a.433.433,0,0,0,.433-.433V17.522a.433.433,0,0,1,.331-.42,6.867,6.867,0,0,0,1.971-.818.433.433,0,0,1,.532.063l1.375,1.375a.446.446,0,0,0,.612,0L17.722,16.5a.433.433,0,0,0,0-.612l-1.375-1.375a.432.432,0,0,1-.063-.532,6.86,6.86,0,0,0,.817-1.971.433.433,0,0,1,.42-.331h1.943a.431.431,0,0,0,.306-.127.426.426,0,0,0,.126-.3V9.516a.433.433,0,0,0-.433-.433H17.522a.432.432,0,0,1-.42-.331,6.856,6.856,0,0,0-.817-1.971.433.433,0,0,1,.063-.532l1.375-1.375a.432.432,0,0,0,0-.612L16.5,3.04a.444.444,0,0,0-.612,0L14.511,4.415a.431.431,0,0,1-.532.063,6.862,6.862,0,0,0-1.97-.817.431.431,0,0,1-.331-.42V1.3a.433.433,0,0,0-.433-.433H9.516a.433.433,0,0,0-.433.433V3.241a.433.433,0,0,1-.331.42,6.866,6.866,0,0,0-1.971.817.432.432,0,0,1-.531-.063L4.876,3.04a.444.444,0,0,0-.612,0L3.041,4.264a.433.433,0,0,0,0,.612L4.416,6.25a.432.432,0,0,1,.063.532,6.859,6.859,0,0,0-.817,1.97.433.433,0,0,1-.42.331H1.3a.432.432,0,0,0-.433.432v1.73a.433.433,0,0,0,.433.433H3.241a.432.432,0,0,1,.42.331,6.863,6.863,0,0,0,.817,1.97.433.433,0,0,1-.063.532L3.04,15.887a.432.432,0,0,0,0,.612l1.224,1.223a.444.444,0,0,0,.612,0l1.375-1.375A.428.428,0,0,1,6.556,16.22Z" fill="#fff"/>
    </g>
    <g id="Group_84" data-name="Group 84" transform="translate(6.056 6.056)">
      <path id="Path_10" data-name="Path 10" d="M18.326,22.651a4.326,4.326,0,1,1,4.326-4.326A4.33,4.33,0,0,1,18.326,22.651Zm0-7.786a3.46,3.46,0,1,0,3.46,3.46A3.464,3.464,0,0,0,18.326,14.865Z" transform="translate(-14 -14)" fill="#fff"/>
    </g>
  </g>
</svg>
