<svg xmlns="http://www.w3.org/2000/svg" width="16.784" height="18.735" viewBox="0 0 16.784 18.735">
  <path id="iconfinder_00-ELASTOFONT-STORE-READY_bag_2703085" d="M18.2,5.79a.586.586,0,0,0-.585-.549h-3.1V4.325A3.637,3.637,0,0,0,10.642,1,3.637,3.637,0,0,0,6.766,4.325v.916h-3.1a.586.586,0,0,0-.585.549L2.251,19.113a.586.586,0,0,0,.585.622H18.448a.586.586,0,0,0,.585-.622ZM7.937,4.325a2.48,2.48,0,0,1,2.7-2.154,2.48,2.48,0,0,1,2.7,2.154v.916H7.937ZM6.766,6.412V7.683a.585.585,0,0,0,1.171,0V6.412h5.409V7.683a.585.585,0,0,0,1.171,0V6.412h2.548l.507,8.119v.781H3.71v-.781l.507-8.119ZM3.458,18.564l.2-3.253h13.96l.2,3.253Z" transform="translate(-2.25 -1)" fill="#fff" opacity="0.87"/>
</svg>
