<svg xmlns="http://www.w3.org/2000/svg" width="17.744" height="13.558" viewBox="0 0 17.744 13.558">
  <g id="iconfinder_mail_1814108" transform="translate(-8.1 -13.8)" opacity="0.87">
    <g id="Icon-Envelope" transform="translate(8.1 13.8)">
      <path id="Fill-3" d="M-52.152-214.4l-.7-.7-6.52,6.52a2.147,2.147,0,0,1-3,0l-6.52-6.483-.7.7,4.853,4.853-4.853,4.853.7.7,4.853-4.853.963.963a3.088,3.088,0,0,0,2.186.926,3.088,3.088,0,0,0,2.186-.926l.963-.963,4.853,4.853.7-.7-4.853-4.853,4.89-4.89" transform="translate(69.711 216.248)" fill="#fff"/>
      <path id="Fill-4" d="M-53.712-204.642H-68.344A1.565,1.565,0,0,1-69.9-206.2v-10.447a1.565,1.565,0,0,1,1.556-1.556h14.633a1.565,1.565,0,0,1,1.556,1.556V-206.2a1.565,1.565,0,0,1-1.556,1.556ZM-68.381-217.2a.506.506,0,0,0-.519.519v10.447a.506.506,0,0,0,.519.519h14.633a.506.506,0,0,0,.519-.519v-10.447a.506.506,0,0,0-.519-.519Z" transform="translate(69.9 218.2)" fill="#fff"/>
    </g>
  </g>
</svg>
